<svg width="297" height="51" viewBox="0 0 297 51" fill="none" xmlns="http://www.w3.org/2000/svg">
<path d="M7.27154 0.799805H23.1605C29.378 0.799805 34.444 4.94476 34.444 11.6227C34.444 20.1429 27.5358 25.4393 19.2458 25.4393H10.0348L7.50181 40.1769H0.363281L7.27154 0.799805ZM19.0156 19.2218C23.8514 19.2218 27.3055 17.1494 27.3055 12.0833C27.3055 8.16862 24.3119 6.78697 21.0881 6.78697H13.2587L11.1862 19.2218H19.0156Z" fill="white"/>
<path d="M34.9043 32.1172C34.9043 31.1961 34.9043 30.5052 35.1346 29.5841C35.5951 27.2814 36.0557 24.9786 36.286 22.6759C37.4373 15.7676 42.0428 11.1621 49.1814 11.1621C51.9447 11.1621 55.1685 12.0832 56.5502 14.6162H56.7804L57.4713 11.6227H63.919L58.8529 40.1768H52.4052L52.8658 36.9529H52.6355C50.7933 39.0254 46.8786 40.8676 44.1153 40.8676C38.819 40.8676 34.9043 37.6438 34.9043 32.1172ZM54.2474 29.3539L55.3988 22.4456C55.3988 22.2153 55.3988 21.7548 55.3988 21.5245C55.3988 18.3006 52.4052 16.919 49.6419 16.919C45.9575 16.919 43.6548 19.2217 42.9639 22.6759L41.5823 29.8144C41.5823 30.0447 41.5823 30.5052 41.5823 30.9658C41.5823 33.9594 44.1153 35.341 46.8786 35.341C50.563 35.1107 53.5566 33.0383 54.2474 29.3539Z" fill="white"/>
<path d="M71.288 11.8529H77.7357L77.0448 15.0768H77.2751C79.5779 12.774 82.8017 11.1621 85.7953 11.1621C91.3219 11.1621 95.2366 14.1557 95.2366 19.9126C95.2366 20.8337 95.2366 21.5245 95.0063 22.4456C94.5457 24.7484 94.0852 27.0511 93.8549 29.3539C92.7035 36.2621 87.4072 40.8676 80.2687 40.8676C77.7357 40.8676 74.9724 39.7162 73.821 37.4135H73.5907L70.8274 50.7695H64.1494L71.288 11.8529ZM86.9467 29.5841L88.3283 22.4456C88.3283 22.2153 88.3283 21.7548 88.3283 21.2942C88.3283 18.3006 85.7953 16.919 83.032 16.919C79.3476 16.919 76.354 19.452 75.8935 22.9062L74.7421 29.5841C74.7421 29.8144 74.7421 30.275 74.7421 30.7355C74.7421 33.7291 77.5054 35.341 80.2687 35.341C83.4925 35.1107 86.2558 33.0383 86.9467 29.5841Z" fill="white"/>
<path d="M98 31.4263C98 29.1236 98.6908 25.8997 99.1514 23.597C100.533 15.9979 106.75 11.1621 114.35 11.1621C119.876 11.1621 124.712 13.9254 124.712 19.9126C124.712 22.2153 124.021 25.4392 123.561 27.7419H105.369C105.139 28.663 104.908 29.5841 104.908 30.5052C104.908 33.7291 107.672 35.1107 110.665 35.1107C114.81 35.1107 118.264 33.2685 120.106 32.5777L122.179 36.9529C119.646 39.2557 114.58 40.8676 109.283 40.8676C103.527 40.8676 98 38.1043 98 31.4263ZM117.804 23.3667C117.804 22.6759 118.034 21.985 118.034 21.2942C118.034 18.5309 115.961 17.1493 113.428 17.1493C109.974 17.1493 107.441 18.9915 106.52 22.2153C106.52 22.6759 106.29 23.1364 106.29 23.597L117.804 23.3667Z" fill="white"/>
<path d="M132.772 11.8531H139.22L138.299 16.6889H138.529C140.601 13.6953 145.437 11.3926 148.661 11.3926C149.352 11.3926 150.043 11.3926 150.733 11.6228L149.582 17.61C148.661 17.3797 147.51 17.3797 146.588 17.3797C141.292 17.3797 137.608 20.6036 136.687 25.6696L134.154 40.177H127.476L132.772 11.8531Z" fill="white"/>
<path d="M149.352 36.0316L153.497 31.8867C155.339 33.7289 158.332 35.3408 161.096 35.3408C163.629 35.3408 167.083 35.1105 167.083 31.8867C167.083 29.8142 164.319 29.1234 161.556 28.2023C157.411 26.8206 152.806 25.439 152.806 20.3729C152.806 14.1555 158.332 10.9316 164.78 10.9316C168.695 10.9316 172.149 11.6225 174.912 14.616L170.997 18.5307C169.385 17.1491 166.852 15.9977 164.319 15.9977C162.017 15.9977 159.023 16.9188 159.023 19.6821C159.023 20.8335 159.944 21.294 161.326 21.7546C165.471 23.3665 173.53 24.7482 173.53 30.505C173.53 38.1041 167.083 40.4069 160.865 40.4069C156.26 40.6371 151.654 39.4858 149.352 36.0316Z" fill="white"/>
<path d="M182.511 11.8529H188.959L188.268 15.0768H188.498C190.801 12.774 194.025 11.1621 197.018 11.1621C202.545 11.1621 206.459 14.1557 206.459 19.9126C206.459 20.8337 206.459 21.5245 206.229 22.4456C205.769 24.7484 205.308 27.0511 205.078 29.3539C203.926 36.2621 198.63 40.8676 191.492 40.8676C188.959 40.8676 186.195 39.7162 185.044 37.4135H184.814L182.281 50.9997H175.603L182.511 11.8529ZM198.4 29.5841L199.781 22.4456C199.781 22.2153 199.781 21.7548 199.781 21.2942C199.781 18.3006 197.248 16.919 194.485 16.919C190.801 16.919 187.807 19.452 187.347 22.9062L186.195 29.5841C186.195 29.8144 186.195 30.275 186.195 30.7355C186.195 33.7291 188.959 35.341 191.722 35.341C194.946 35.1107 197.709 33.0383 198.4 29.5841Z" fill="white"/>
<path d="M209.453 32.1172C209.453 31.1961 209.453 30.5052 209.683 29.5841C210.144 27.2814 210.604 24.9786 210.835 22.6759C211.986 15.7676 216.592 11.1621 223.73 11.1621C226.493 11.1621 229.717 12.0832 231.099 14.6162H231.329L232.02 11.6227H238.468L233.402 39.9465H226.954L227.415 36.7227H227.184C225.342 38.7951 221.427 40.6373 218.664 40.6373C213.598 40.8676 209.453 37.6438 209.453 32.1172ZM228.796 29.3539L229.948 22.4456C229.948 22.2153 229.948 21.7548 229.948 21.5245C229.948 18.3006 226.954 16.919 224.191 16.919C220.506 16.919 218.204 19.2217 217.513 22.6759L216.131 29.8144C216.131 30.0447 216.131 30.5052 216.131 30.9658C216.131 33.9594 218.664 35.341 221.427 35.341C225.342 35.1107 228.336 33.0383 228.796 29.3539Z" fill="white"/>
<path d="M241.001 31.4263C241.001 28.8933 241.462 26.13 242.152 23.597C243.764 16.2282 249.061 11.1621 256.89 11.1621C262.417 11.1621 267.252 13.9254 267.252 19.9126C267.252 20.8337 267.022 21.7548 266.792 22.6759H260.574C260.574 22.2153 260.805 21.5245 260.805 21.0639C260.805 18.0704 258.502 16.6887 255.739 16.6887C251.824 16.6887 249.751 18.9915 249.061 22.6759C248.6 24.2878 247.909 28.8933 247.909 30.275C247.909 33.4988 250.673 34.8805 253.436 34.8805C256.199 34.8805 259.193 33.7291 261.956 32.5777L264.029 37.6438C261.035 39.2557 257.581 40.6373 252.284 40.6373C246.758 40.8676 241.001 37.874 241.001 31.4263Z" fill="white"/>
<path d="M269.325 31.4263C269.325 29.1236 270.016 25.8997 270.477 23.597C271.858 15.9979 278.076 11.1621 285.675 11.1621C291.201 11.1621 296.037 13.9254 296.037 19.9126C296.037 22.2153 295.346 25.4392 294.886 27.7419H276.694C276.464 28.663 276.233 29.5841 276.233 30.5052C276.233 33.7291 278.997 35.1107 281.99 35.1107C286.135 35.1107 289.589 33.2685 291.432 32.5777L293.504 36.9529C290.971 39.2557 285.905 40.8676 280.609 40.8676C274.622 40.8676 269.325 38.1043 269.325 31.4263ZM288.899 23.3667C288.899 22.6759 289.129 21.985 289.129 21.2942C289.129 18.5309 287.056 17.1493 284.523 17.1493C281.069 17.1493 278.536 18.9915 277.615 22.2153C277.615 22.6759 277.385 23.1364 277.385 23.597L288.899 23.3667Z" fill="white"/>
</svg>
