<svg width="296" height="51" viewBox="0 0 296 51" fill="none" xmlns="http://www.w3.org/2000/svg">
<path d="M6.90826 0H22.7972C29.0147 0 34.0807 4.14496 34.0807 10.8229C34.0807 19.3431 27.1725 24.6395 18.8826 24.6395H9.67156L7.13853 39.3771H0L6.90826 0ZM18.6523 18.422C23.4881 18.422 26.9422 16.3495 26.9422 11.2835C26.9422 7.36881 23.9486 5.98716 20.7248 5.98716H12.8954L10.8229 18.422H18.6523Z" fill="#0E1219"/>
<path d="M34.541 31.3174C34.541 30.3963 34.541 29.7054 34.7713 28.7843C35.2318 26.4816 35.6924 24.1788 35.9227 21.8761C37.074 14.9678 41.6795 10.3623 48.8181 10.3623C51.5814 10.3623 54.8052 11.2834 56.1869 13.8164H56.4172L57.108 10.8229H63.5557L58.4896 39.377H52.0419L52.5025 36.1531H52.2722C50.43 38.2256 46.5153 40.0678 43.752 40.0678C38.4557 40.0678 34.541 36.844 34.541 31.3174ZM53.8841 28.5541L55.0355 21.6458C55.0355 21.4155 55.0355 20.955 55.0355 20.7247C55.0355 17.5008 52.0419 16.1192 49.2786 16.1192C45.5942 16.1192 43.2915 18.4219 42.6006 21.8761L41.219 29.0146C41.219 29.2449 41.219 29.7054 41.219 30.166C41.219 33.1596 43.752 34.5412 46.5153 34.5412C50.1997 34.3109 53.1933 32.2385 53.8841 28.5541Z" fill="#0E1219"/>
<path d="M70.9247 11.0531H77.3724L76.6816 14.277H76.9118C79.2146 11.9742 82.4384 10.3623 85.432 10.3623C90.9586 10.3623 94.8733 13.3559 94.8733 19.1128C94.8733 20.0339 94.8733 20.7247 94.643 21.6458C94.1825 23.9485 93.7219 26.2513 93.4916 28.5541C92.3403 35.4623 87.0439 40.0678 79.9054 40.0678C77.3724 40.0678 74.6091 38.9164 73.4577 36.6137H73.2274L70.4641 49.9696H63.7861L70.9247 11.0531ZM86.5834 28.7843L87.965 21.6458C87.965 21.4155 87.965 20.955 87.965 20.4944C87.965 17.5008 85.432 16.1192 82.6687 16.1192C78.9843 16.1192 75.9907 18.6522 75.5302 22.1063L74.3788 28.7843C74.3788 29.0146 74.3788 29.4751 74.3788 29.9357C74.3788 32.9293 77.1421 34.5412 79.9054 34.5412C83.1293 34.3109 85.8926 32.2385 86.5834 28.7843Z" fill="#0E1219"/>
<path d="M97.6367 30.6265C97.6367 28.3238 98.3275 25.0999 98.7881 22.7972C100.17 15.1981 106.387 10.3623 113.986 10.3623C119.513 10.3623 124.349 13.1256 124.349 19.1128C124.349 21.4155 123.658 24.6394 123.197 26.9421H105.006C104.775 27.8632 104.545 28.7843 104.545 29.7054C104.545 32.9293 107.308 34.3109 110.302 34.3109C114.447 34.3109 117.901 32.4687 119.743 31.7779L121.816 36.1531C119.283 38.4559 114.217 40.0678 108.92 40.0678C103.163 40.0678 97.6367 37.3045 97.6367 30.6265ZM117.44 22.5669C117.44 21.8761 117.671 21.1852 117.671 20.4944C117.671 17.7311 115.598 16.3495 113.065 16.3495C109.611 16.3495 107.078 18.1917 106.157 21.4155C106.157 21.8761 105.927 22.3366 105.927 22.7972L117.44 22.5669Z" fill="#0E1219"/>
<path d="M132.409 11.0533H138.856L137.935 15.8891H138.166C140.238 12.8955 145.074 10.5928 148.298 10.5928C148.988 10.5928 149.679 10.5928 150.37 10.823L149.219 16.8102C148.298 16.5799 147.146 16.5799 146.225 16.5799C140.929 16.5799 137.244 19.8038 136.323 24.8698L133.79 39.3772H127.112L132.409 11.0533Z" fill="#0E1219"/>
<path d="M148.988 35.2318L153.133 31.0869C154.975 32.9291 157.969 34.541 160.732 34.541C163.265 34.541 166.719 34.3107 166.719 31.0869C166.719 29.0144 163.956 28.3236 161.193 27.4025C157.048 26.0208 152.442 24.6392 152.442 19.5731C152.442 13.3557 157.969 10.1318 164.417 10.1318C168.331 10.1318 171.786 10.8227 174.549 13.8162L170.634 17.7309C169.022 16.3493 166.489 15.1979 163.956 15.1979C161.653 15.1979 158.66 16.119 158.66 18.8823C158.66 20.0337 159.581 20.4942 160.963 20.9548C165.108 22.5667 173.167 23.9484 173.167 29.7052C173.167 37.3043 166.719 39.6071 160.502 39.6071C155.897 39.8373 151.291 38.686 148.988 35.2318Z" fill="#0E1219"/>
<path d="M182.148 11.0531H188.595L187.904 14.277H188.135C190.437 11.9742 193.661 10.3623 196.655 10.3623C202.181 10.3623 206.096 13.3559 206.096 19.1128C206.096 20.0339 206.096 20.7247 205.866 21.6458C205.405 23.9485 204.945 26.2513 204.714 28.5541C203.563 35.4623 198.267 40.0678 191.128 40.0678C188.595 40.0678 185.832 38.9164 184.681 36.6137H184.45L181.917 50.1999H175.239L182.148 11.0531ZM198.037 28.7843L199.418 21.6458C199.418 21.4155 199.418 20.955 199.418 20.4944C199.418 17.5008 196.885 16.1192 194.122 16.1192C190.437 16.1192 187.444 18.6522 186.983 22.1063L185.832 28.7843C185.832 29.0146 185.832 29.4752 185.832 29.9357C185.832 32.9293 188.595 34.5412 191.359 34.5412C194.582 34.3109 197.346 32.2385 198.037 28.7843Z" fill="#0E1219"/>
<path d="M209.09 31.3174C209.09 30.3963 209.09 29.7054 209.32 28.7843C209.781 26.4816 210.241 24.1788 210.471 21.8761C211.623 14.9678 216.228 10.3623 223.367 10.3623C226.13 10.3623 229.354 11.2834 230.736 13.8164H230.966L231.657 10.8229H238.105L233.038 39.1467H226.591L227.051 35.9229H226.821C224.979 37.9953 221.064 39.8375 218.301 39.8375C213.235 40.0678 209.09 36.844 209.09 31.3174ZM228.433 28.5541L229.584 21.6458C229.584 21.4155 229.584 20.955 229.584 20.7247C229.584 17.5008 226.591 16.1192 223.827 16.1192C220.143 16.1192 217.84 18.4219 217.149 21.8761L215.768 29.0146C215.768 29.2449 215.768 29.7054 215.768 30.166C215.768 33.1596 218.301 34.5412 221.064 34.5412C224.979 34.3109 227.972 32.2385 228.433 28.5541Z" fill="#0E1219"/>
<path d="M240.638 30.6265C240.638 28.0935 241.098 25.3302 241.789 22.7972C243.401 15.4284 248.697 10.3623 256.527 10.3623C262.053 10.3623 266.889 13.1256 266.889 19.1128C266.889 20.0339 266.659 20.955 266.429 21.8761H260.211C260.211 21.4155 260.441 20.7247 260.441 20.2641C260.441 17.2706 258.139 15.8889 255.375 15.8889C251.461 15.8889 249.388 18.1917 248.697 21.8761C248.237 23.488 247.546 28.0935 247.546 29.4751C247.546 32.699 250.309 34.0807 253.073 34.0807C255.836 34.0807 258.829 32.9293 261.593 31.7779L263.665 36.844C260.672 38.4559 257.218 39.8375 251.921 39.8375C246.395 40.0678 240.638 37.0742 240.638 30.6265Z" fill="#0E1219"/>
<path d="M268.962 30.6265C268.962 28.3238 269.653 25.0999 270.113 22.7972C271.495 15.1981 277.712 10.3623 285.311 10.3623C290.838 10.3623 295.674 13.1256 295.674 19.1128C295.674 21.4155 294.983 24.6394 294.522 26.9421H276.331C276.1 27.8632 275.87 28.7843 275.87 29.7054C275.87 32.9293 278.633 34.3109 281.627 34.3109C285.772 34.3109 289.226 32.4687 291.068 31.7779L293.141 36.1531C290.608 38.4559 285.542 40.0678 280.245 40.0678C274.258 40.0678 268.962 37.3045 268.962 30.6265ZM288.535 22.5669C288.535 21.8761 288.766 21.1852 288.766 20.4944C288.766 17.7311 286.693 16.3495 284.16 16.3495C280.706 16.3495 278.173 18.1917 277.252 21.4155C277.252 21.8761 277.022 22.3366 277.022 22.7972L288.535 22.5669Z" fill="#0E1219"/>
</svg>
