<?xml version="1.0" encoding="utf-8"?>
<svg viewBox="27.078 117.128 440.806 302.267" xmlns="http://www.w3.org/2000/svg">
  <path d="M 307.875 340.484 L 307.875 412.952 L 117.256 412.952 C 95.537 412.952 77.867 396.697 77.867 376.718 C 77.867 356.739 95.537 340.484 117.256 340.484 L 307.875 340.484 Z" fill="#f2f2f2" style=""/>
  <path d="M 312.557 412.394 C 312.557 413.933 311.247 415.181 309.631 415.181 L 113.86 415.181 C 82.999 415.181 63.71 383.361 79.141 357.904 C 86.302 346.09 99.537 338.812 113.86 338.812 L 309.631 338.812 C 311.884 338.812 313.291 341.134 312.165 342.992 C 311.642 343.855 310.676 344.386 309.631 344.386 L 113.86 344.386 C 87.504 344.386 71.031 371.561 84.209 393.302 C 90.325 403.391 101.628 409.607 113.86 409.607 L 309.631 409.607 C 311.247 409.608 312.557 410.855 312.557 412.394 Z" fill="#fde047" style=""/>
  <path d="M 307.875 357.207 L 103.033 357.207 C 102.582 357.207 102.301 356.743 102.526 356.371 C 102.631 356.199 102.824 356.092 103.033 356.092 L 307.875 356.092 C 308.326 356.092 308.607 356.557 308.382 356.929 C 308.277 357.101 308.084 357.207 307.875 357.207 Z" fill="#ccc" style=""/>
  <path d="M 307.875 370.586 L 103.033 370.586 C 102.582 370.586 102.301 370.121 102.526 369.75 C 102.631 369.577 102.824 369.471 103.033 369.471 L 307.875 369.471 C 308.326 369.471 308.607 369.936 308.382 370.307 C 308.277 370.48 308.084 370.586 307.875 370.586 Z" fill="#ccc" style=""/>
  <path d="M 307.875 383.965 L 103.033 383.965 C 102.582 383.965 102.301 383.5 102.526 383.128 C 102.631 382.956 102.824 382.85 103.033 382.85 L 307.875 382.85 C 308.326 382.85 308.607 383.314 308.382 383.686 C 308.277 383.858 308.084 383.965 307.875 383.965 Z" fill="#ccc" style=""/>
  <path d="M 307.875 397.343 L 103.033 397.343 C 102.582 397.343 102.301 396.879 102.526 396.507 C 102.631 396.335 102.824 396.228 103.033 396.228 L 307.875 396.228 C 308.326 396.228 308.607 396.693 308.382 397.064 C 308.277 397.237 308.084 397.343 307.875 397.343 Z" fill="#ccc" style=""/>
  <path d="M 455.196 354.125 L 407.459 410.554 L 259.028 296.641 C 242.116 283.662 239.064 260.445 252.225 244.887 C 265.385 229.33 289.853 227.233 306.764 240.212 L 455.196 354.125 Z" fill="#f2f2f2" style=""/>
  <path d="M 411.472 412.918 C 410.458 414.116 408.616 414.305 407.358 413.34 L 254.915 296.348 C 230.883 277.905 236.825 241.6 265.61 230.999 C 278.969 226.079 294.069 228.321 305.222 236.88 L 457.665 353.872 C 459.42 355.217 458.988 357.868 456.887 358.643 C 455.911 359.003 454.807 358.839 453.993 358.213 L 301.55 241.221 C 281.033 225.463 250.3 236.768 246.231 261.571 C 244.34 273.091 249.052 284.695 258.587 292.007 L 411.03 408.999 C 412.287 409.965 412.486 411.719 411.472 412.918 Z" fill="#ccc" style=""/>
  <path d="M 444.18 367.147 L 284.673 244.734 C 284.322 244.465 284.409 243.935 284.829 243.78 C 285.024 243.708 285.245 243.741 285.408 243.866 L 444.914 366.279 C 445.265 366.548 445.179 367.078 444.759 367.233 C 444.564 367.306 444.343 367.273 444.18 367.147 Z" fill="#ccc" style=""/>
  <path d="M 435.367 377.565 L 275.86 255.152 C 275.51 254.882 275.597 254.352 276.018 254.198 C 276.212 254.127 276.432 254.159 276.595 254.284 L 436.101 376.697 C 436.452 376.966 436.366 377.496 435.946 377.651 C 435.751 377.723 435.53 377.69 435.367 377.565 Z" fill="#ccc" style=""/>
  <path d="M 426.554 387.983 L 267.047 265.57 C 266.697 265.3 266.783 264.77 267.204 264.616 C 267.399 264.544 267.619 264.577 267.782 264.701 L 427.288 387.114 C 427.639 387.384 427.552 387.914 427.132 388.068 C 426.937 388.14 426.717 388.108 426.554 387.983 Z" fill="#ccc" style=""/>
  <path d="M 417.741 398.4 L 258.234 275.987 C 257.884 275.718 257.97 275.188 258.391 275.033 C 258.586 274.961 258.806 274.994 258.969 275.119 L 418.475 397.532 C 418.827 397.801 418.74 398.331 418.32 398.486 C 418.125 398.559 417.904 398.526 417.741 398.4 Z" fill="#ccc" style=""/>
  <path d="M 465.244 415.739 L 30.979 415.739 C 30.528 415.739 30.247 415.274 30.472 414.903 C 30.576 414.73 30.77 414.624 30.979 414.624 L 465.244 414.624 C 465.695 414.624 465.976 415.088 465.751 415.46 C 465.646 415.633 465.453 415.739 465.244 415.739 Z" fill="#ccc" style=""/>
  <path fill="#ffb8b8" style=""/>
  <path d="M 204.238 168.279 C 195.688 168.225 187.244 166.464 179.453 163.108 C 178.506 162.706 177.897 161.809 177.901 160.821 L 177.901 140.52 C 177.903 139.135 179.081 138.013 180.535 138.011 L 227.941 138.011 C 229.395 138.013 230.573 139.135 230.575 140.52 L 230.575 160.821 C 230.579 161.809 229.971 162.706 229.023 163.108 C 221.232 166.464 212.789 168.225 204.238 168.279 Z" fill="#fde047" style="" transform="matrix(0.941531, -0.336927, 0.336927, 0.941531, -39.657044, 77.767551)"/>
  <path d="M 198.126 152.981 C 197.774 152.982 197.426 152.915 197.102 152.785 L 159.51 137.679 C 157.642 136.928 157.327 134.533 158.944 133.368 C 159.144 133.224 159.365 133.107 159.599 133.023 L 197.192 119.439 C 197.798 119.219 198.467 119.221 199.072 119.443 L 236.161 133.026 C 238.054 133.72 238.448 136.104 236.872 137.318 C 236.683 137.464 236.474 137.583 236.251 137.674 L 199.162 152.781 C 198.834 152.913 198.482 152.982 198.126 152.981 Z" fill="#fde047" style="" transform="matrix(0.941531, -0.336927, 0.336927, 0.941531, -34.295656, 74.628634)"/>
  <circle cx="116.11417" cy="88.28592" r="6" fill="#3f3d56" transform="matrix(0.551043, -0.197191, 0.187818, 0.52485, 105.70285, 144.631973)" style=""/>
  <path d="M 238.957 134.998 L 201.868 150.104 C 201.283 150.342 200.623 150.344 200.037 150.109 L 162.445 135.002 C 161.973 134.817 161.579 134.488 161.325 134.065 C 160.622 135.227 161.147 136.712 162.445 137.232 L 200.037 152.338 C 200.623 152.574 201.283 152.572 201.868 152.334 L 238.957 137.228 C 240.248 136.704 240.767 135.223 240.066 134.065 C 239.815 134.484 239.425 134.812 238.957 134.998 Z" opacity="0.2" style="" transform="matrix(0.941531, -0.336927, 0.336927, 0.941531, -36.543541, 75.997769)"/>
  <path d="M 181.409 165.398 C 181.732 165.398 181.994 165.148 181.994 164.841 L 181.994 146.188 L 201.297 139.49 C 201.747 139.496 202.036 139.036 201.817 138.661 C 201.715 138.487 201.523 138.378 201.314 138.375 L 182.012 145.073 C 181.698 145.066 181.395 145.182 181.173 145.393 C 180.949 145.603 180.823 145.889 180.824 146.188 L 180.824 164.841 C 180.824 165.148 181.086 165.398 181.409 165.398 Z" fill="#3f3d56" style="" transform="matrix(0.941531, -0.336927, 0.336927, 0.941531, -39.98611, 73.354305)"/>
  <ellipse cx="350.928" cy="406.998" rx="13.002" ry="4.188" transform="matrix(0.368087, -0.929791, 0.938415, 0.346305, -315.362788, 468.381138)" fill="#2f2e41" style=""/>
  <circle cx="246.93382" cy="300.02536" r="13.68536" fill="#fde047" transform="matrix(0.339343, 0, 0, 0.327634, 118.049706, 172.695099)" style=""/>
  <circle cx="155.92696" cy="396.4364" r="79" fill="#2f2e41" transform="matrix(0.339343, 0, 0, 0.327634, 118.049706, 172.695099)" style=""/>
  <rect x="158.746" y="322.894" width="8.144" height="14.088" fill="#2f2e41" style=""/>
  <rect x="175.035" y="322.894" width="8.144" height="14.088" fill="#2f2e41" style=""/>
  <ellipse cx="165.533" cy="337.147" rx="6.787" ry="2.458" fill="#2f2e41" style=""/>
  <ellipse cx="181.822" cy="336.819" rx="6.787" ry="2.458" fill="#2f2e41" style=""/>
  <circle cx="157.92696" cy="376.4364" r="27" fill="#fff" transform="matrix(0.339343, 0, 0, 0.327634, 118.049706, 172.695099)" style=""/>
  <circle cx="157.92696" cy="376.4364" r="9" fill="#3f3d56" transform="matrix(0.339343, 0, 0, 0.327634, 118.049706, 172.695099)" style=""/>
  <path d="M 144.958 278.511 C 142.793 269.151 149.713 259.694 160.413 257.387 C 171.113 255.08 181.542 260.797 183.707 270.157 C 185.872 279.516 178.78 282.968 168.08 285.276 C 157.379 287.583 147.123 287.87 144.958 278.511 Z" fill="#fde047" style=""/>
  <ellipse cx="188.928" cy="429.998" rx="4.09" ry="13.316" transform="matrix(0.440909, -0.897552, 0.909544, 0.416497, -333.63415, 281.051149)" fill="#2f2e41" style=""/>
  <path d="M 157.794 311.918 C 157.794 314.452 164.551 319.454 172.047 319.454 C 179.543 319.454 186.572 312.322 186.572 309.789 C 186.572 307.256 179.543 310.28 172.047 310.28 C 164.551 310.28 157.794 309.386 157.794 311.918 Z" fill="#fff" style=""/>
  <circle cx="776.17447" cy="189.47009" r="79" fill="#2f2e41" transform="matrix(0.339343, 0, 0, 0.327634, -0.338196, 131.763107)" style=""/>
  <rect x="313.434" y="103.668" width="8.135" height="14.103" transform="matrix(0.985067, -0.172169, 0.184298, 0.982948, -57.053894, 165.189743)" fill="#2f2e41" style=""/>
  <rect x="297.425" y="106.474" width="8.135" height="14.103" transform="matrix(0.985068, -0.172168, 0.184297, 0.982948, -57.827576, 162.479446)" fill="#2f2e41" style=""/>
  <ellipse cx="889.126" cy="372.603" rx="6.69" ry="2.493" transform="matrix(0.774151, -0.633, 0.65982, 0.752222, -674.182853, 513.372448)" fill="#2f2e41" style=""/>
  <ellipse cx="935.374" cy="364.231" rx="6.69" ry="2.493" transform="matrix(0.774151, -0.633, 0.65982, 0.752222, -688.767897, 546.202298)" fill="#2f2e41" style=""/>
  <circle cx="770.64383" cy="170.14622" r="27" fill="#fff" transform="matrix(0.339343, 0, 0, 0.327634, -0.338196, 131.763107)" style=""/>
  <circle cx="759.5469" cy="160.46817" r="9" fill="#3f3d56" transform="matrix(0.339343, 0, 0, 0.327634, -0.338196, 131.763107)" style=""/>
  <ellipse cx="825.211" cy="245.296" rx="4.07" ry="13.38" transform="matrix(0.230988, -0.972957, 0.97649, 0.216104, -191.845186, 939.008742)" fill="#2f2e41" style=""/>
  <ellipse cx="980.285" cy="271.084" rx="4.07" ry="13.38" transform="matrix(0.230988, -0.972957, 0.97649, 0.216104, -200.224175, 1092.765035)" fill="#2f2e41" style=""/>
  <path d="M 270.414 204.041 C 271.252 208.508 266.767 212.175 262.34 210.642 C 260.287 209.93 258.782 208.214 258.393 206.141 C 257.792 202.936 260.359 201.802 263.678 201.222 C 266.998 200.642 269.813 200.835 270.414 204.041 Z" fill="#fff" style=""/>
</svg>